{
  "asset": {
    "version": "2.0",
    "generator": "THREE.GLTFExporter"
  },
  "scenes": [
    {
      "name": "Scene",
      "nodes": [
        1,
        4,
        8
      ]
    }
  ],
  "scene": 0,
  "nodes": [
    {
      "name": "root",
      "extras": {
        "name": "root"
      }
    },
    {
      "name": "pp.glb",
      "children": [
        0
      ]
    },
    {
      "name": "root",
      "extras": {
        "name": "root"
      }
    },
    {
      "name": "ppglb",
      "extras": {
        "name": "pp.glb"
      },
      "children": [
        2
      ]
    },
    {
      "name": "scene (3).gltf",
      "children": [
        3
      ]
    },
    {
      "matrix": [
        0.0014187104534357786,
        0,
        0,
        0,
        0,
        0.0014187104534357786,
        0,
        0,
        0,
        0,
        0.0014187104534357786,
        0,
        0,
        0,
        0,
        1
      ],
      "name": "node_id5",
      "extras": {
        "name": "node_id5"
      },
      "mesh": 0
    },
    {
      "name": "root",
      "extras": {
        "name": "root"
      },
      "children": [
        5
      ]
    },
    {
      "name": "ppglb",
      "extras": {
        "name": "pp.glb"
      },
      "children": [
        6
      ]
    },
    {
      "name": "scene (2).gltf",
      "children": [
        7
      ]
    }
  ],
  "bufferViews": [
    {
      "buffer": 0,
      "byteOffset": 0,
      "byteLength": 5964,
      "target": 34962,
      "byteStride": 12
    },
    {
      "buffer": 0,
      "byteOffset": 5964,
      "byteLength": 5964,
      "target": 34962,
      "byteStride": 12
    },
    {
      "buffer": 0,
      "byteOffset": 11928,
      "byteLength": 5940,
      "target": 34963
    }
  ],
  "buffers": [
    {
      "byteLength": 17868,
      "uri": "data:application/octet-stream;base64,"
    }
  ],
  "accessors": [
    {
      "bufferView": 0,
      "componentType": 5126,
      "count": 497,
      "max": [
        180.44554138183594,
        75.07129669189453,
        62.80619812011719
      ],
      "min": [
        -180.44554138183594,
        -75.07129669189453,
        -62.80619812011719
      ],
      "type": "VEC3"
    },
    {
      "bufferView": 1,
      "componentType": 5126,
      "count": 497,
      "max": [
        0.9973764419555664,
        0.9944683313369751,
        1
      ],
      "min": [
        -0.9977700710296631,
        -0.9944683313369751,
        -0.9781476259231567
      ],
      "type": "VEC3"
    },
    {
      "bufferView": 2,
      "componentType": 5123,
      "count": 2970,
      "max": [
        496
      ],
      "min": [
        0
      ],
      "type": "SCALAR"
    }
  ],
  "materials": [
    {
      "pbrMetallicRoughness": {
        "baseColorTexture": {
          "index": 0
        }
      },
      "alphaMode": "MASK",
      "alphaCutoff": 0.5,
      "doubleSided": true,
      "name": "32",
      "extras": {
        "MSFT_sRGBFactors": false
      },
      "extensions": {
        "KHR_materials_pbrSpecularGlossiness": {
          "specularFactor": [
            1,
            1,
            1
          ],
          "glossinessFactor": 1,
          "diffuseTexture": {
            "index": 0
          },
          "specularGlossinessTexture": {
            "index": 1
          }
        }
      }
    }
  ],
  "textures": [
    {
      "sampler": 0,
      "source": 0,
      "name": "texture3"
    },
    {
      "sampler": 1,
      "source": 1,
      "name": "texture4"
    }
  ],
  "samplers": [
    {
      "magFilter": 9729,
      "minFilter": 9985,
      "wrapS": 10497,
      "wrapT": 10497
    },
    {
      "magFilter": 9729,
      "minFilter": 9985,
      "wrapS": 10497,
      "wrapT": 10497
    }
  ],
  "images": [
    {
      "mimeType": "image/png",
      "uri": "data:image/png;base64,"
    },
    {
      "mimeType": "image/png",
      "uri": "data:image/png;base64,"
    }
  ],
  "meshes": [
    {
      "primitives": [
        {
          "mode": 4,
          "attributes": {
            "POSITION": 0,
            "NORMAL": 1
          },
          "indices": 2,
          "material": 0
        }
      ]
    }
  ],
  "extensionsUsed": [
    "KHR_materials_pbrSpecularGlossiness"
  ]
}